<svg width="100" height="100" viewBox="0 0 100 100" fill="none" xmlns="http://www.w3.org/2000/svg">
<path d="M86.1329 26.5723V14.0625C86.1329 12.334 84.7364 10.9375 83.0079 10.9375H16.9922C15.2637 10.9375 13.8672 12.334 13.8672 14.0625V26.5723C12.2364 26.6699 10.9376 28.0273 10.9376 29.6875V42.5488C10.9313 44.9125 11.4099 47.2524 12.3438 49.4238C12.7637 50.4199 13.2813 51.3574 13.8672 52.2461V85.9375C13.8672 87.6562 15.2637 89.0625 16.9922 89.0625H43.7501V71.875H56.2501V89.0625H83.0079C84.7364 89.0625 86.1329 87.666 86.1329 85.9375V52.2461C86.728 51.3552 87.2381 50.4103 87.6563 49.4238C88.584 47.2461 89.0626 44.9316 89.0626 42.5488V29.6875C89.0626 28.0273 87.7637 26.6699 86.1329 26.5723ZM79.1016 82.041H62.5001V68.75C62.5001 67.0215 61.1036 65.625 59.3751 65.625H40.6251C38.8965 65.625 37.5001 67.0215 37.5001 68.75V82.041H20.8985V58.3887C21.1817 58.5254 21.4747 58.6621 21.7774 58.7793C23.9551 59.6973 26.2696 60.1562 28.6524 60.1562C31.0352 60.1562 33.3399 59.6973 35.5274 58.7793C36.8751 58.2129 38.1446 57.4902 39.3067 56.6211C39.3262 56.6113 39.3458 56.6113 39.3653 56.6211C40.531 57.4939 41.8005 58.2189 43.1446 58.7793C45.3223 59.6973 47.6368 60.1562 50.0196 60.1562C52.4024 60.1562 54.7071 59.6973 56.8946 58.7793C58.2422 58.2129 59.5118 57.4902 60.6739 56.6211C60.6934 56.6113 60.713 56.6113 60.7325 56.6211C61.8982 57.4939 63.1677 58.2189 64.5118 58.7793C66.6895 59.6973 69.004 60.1562 71.3868 60.1562C73.7696 60.1562 76.0743 59.6973 78.2618 58.7793C78.5547 58.6523 78.8477 58.5254 79.1407 58.3887V82.041H79.1016ZM79.1016 26.5625H20.8985V17.9688H79.1016V26.5625Z" fill="black"/>
</svg>
