<svg width="100" height="100" viewBox="0 0 100 100" fill="none" xmlns="http://www.w3.org/2000/svg">
<path d="M83.6812 13.8719C83.9088 13.5901 84.0782 13.2659 84.1795 12.9182C84.2807 12.5704 84.3119 12.206 84.2712 11.8461C84.2304 11.4862 84.1186 11.138 83.9422 10.8217C83.7657 10.5053 83.5282 10.2272 83.2434 10.0035C82.9585 9.7797 82.6321 9.61476 82.283 9.51821C81.9339 9.42166 81.5691 9.39544 81.2098 9.44105C80.8505 9.48667 80.5038 9.60321 80.1899 9.78393C79.876 9.96464 79.6011 10.2059 79.3812 10.4937L66.2031 27.2719C63.0426 24.6184 59.2778 22.7832 55.2406 21.9281C55.7969 21.0281 56.0906 19.9281 56.0906 18.6969C56.0906 17.8831 55.9303 17.0773 55.6189 16.3254C55.3075 15.5736 54.851 14.8905 54.2756 14.315C53.7002 13.7396 53.017 13.2831 52.2652 12.9717C51.5133 12.6603 50.7075 12.5 49.8937 12.5C49.08 12.5 48.2741 12.6603 47.5223 12.9717C46.7705 13.2831 46.0873 13.7396 45.5119 14.315C44.9365 14.8905 44.48 15.5736 44.1686 16.3254C43.8572 17.0773 43.6969 17.8831 43.6969 18.6969C43.6969 19.9469 43.9969 21.0625 44.5719 21.9719C41.0779 22.7439 37.7877 24.2487 34.9185 26.3868C32.0494 28.5249 29.6668 31.2476 27.9281 34.375H27.625C23.947 34.3738 20.3326 35.3343 17.1404 37.1613C13.9482 38.9883 11.2892 41.6181 9.42719 44.79C7.56519 47.9619 6.56492 51.5655 6.52561 55.2433C6.48631 58.9211 7.40934 62.5453 9.20312 65.7562H8.50624C6.56249 65.7562 5.475 67.975 6.69375 69.4875C9.25625 72.675 12.8812 77.0281 14.9937 78.8625C17.2594 80.8312 21.775 83.7062 24.6906 85.5C26.4719 86.5938 27.9781 88.0812 29.0562 89.8719L29.475 90.5719C30.0307 91.4968 30.8163 92.2621 31.7555 92.7933C32.6947 93.3244 33.7554 93.6035 34.8344 93.6031H61.8469C62.9259 93.6035 63.9866 93.3244 64.9257 92.7933C65.8649 92.2621 66.6506 91.4968 67.2062 90.5719L67.625 89.8719C68.7081 88.0844 70.2055 86.5838 71.9906 85.4969C74.9062 83.7062 79.4219 80.8281 81.6906 78.8594C83.7969 77.0312 87.4219 72.6781 89.9875 69.4875C90.2596 69.1484 90.4299 68.7391 90.4786 68.3071C90.5273 67.8751 90.4523 67.4381 90.2625 67.047C90.0727 66.6559 89.7757 66.3267 89.4062 66.0976C89.0367 65.8686 88.6097 65.7491 88.175 65.7531H87.7594C89.3009 63.1258 90.2554 60.1959 90.557 57.1646C90.8587 54.1334 90.5005 51.0728 89.507 48.1932C88.5134 45.3136 86.9082 42.6833 84.8015 40.483C82.6949 38.2827 80.1368 36.5646 77.3031 35.4469L92.0094 27.2875C92.3233 27.1131 92.5998 26.8785 92.8231 26.5973C93.0464 26.316 93.2121 25.9935 93.3108 25.6482C93.4095 25.3029 93.4391 24.9415 93.3981 24.5847C93.3572 24.2279 93.2463 23.8827 93.0719 23.5687C92.8975 23.2548 92.6629 22.9783 92.3816 22.755C92.1004 22.5317 91.7779 22.366 91.4325 22.2673C91.0872 22.1687 90.7259 22.139 90.3691 22.18C90.0123 22.221 89.6671 22.3318 89.3531 22.5062L71.0375 32.6719C70.7163 32.1885 70.3786 31.7164 70.025 31.2562L83.6812 13.8719ZM16.9219 65.7562C15.035 63.7917 13.7249 61.346 13.1351 58.6868C12.5452 56.0275 12.6983 53.2572 13.5775 50.6791C14.4568 48.1011 16.0283 45.8146 18.1202 44.0699C20.212 42.3253 22.7435 41.1897 25.4375 40.7875C24.984 42.7023 24.7554 44.6635 24.7562 46.6312C24.7523 50.2625 25.5337 53.8517 27.0467 57.1528C28.5596 60.4538 30.7685 63.3887 33.5219 65.7562H16.9219ZM79.875 65.7562H66.4781C69.2315 63.3887 71.4403 60.4538 72.9533 57.1528C74.4663 53.8517 75.2476 50.2625 75.2437 46.6312C75.2437 44.7406 75.0375 42.8969 74.6437 41.125C77.0087 41.9877 79.1154 43.4375 80.7661 45.3381C82.4168 47.2387 83.5573 49.5278 84.0803 51.9902C84.6034 54.4527 84.4919 57.0076 83.7562 59.4151C83.0206 61.8226 81.685 64.0067 79.875 65.7562ZM68.9937 46.6281C68.9937 51.6656 66.9926 56.4967 63.4306 60.0587C59.8686 63.6208 55.0374 65.6219 50 65.6219C44.9625 65.6219 40.1314 63.6208 36.5694 60.0587C33.0074 56.4967 31.0062 51.6656 31.0062 46.6281C31.0062 41.5907 33.0074 36.7595 36.5694 33.1975C40.1314 29.6355 44.9625 27.6344 50 27.6344C55.0374 27.6344 59.8686 29.6355 63.4306 33.1975C66.9926 36.7595 68.9937 41.5907 68.9937 46.6281Z" fill="black"/>
</svg>
