<svg width="100" height="100" viewBox="0 0 100 100" fill="none" xmlns="http://www.w3.org/2000/svg">
<path d="M8.33325 91.6667V83.3333C8.33325 83.3333 29.1666 75 49.9999 75C70.8332 75 91.6666 83.3333 91.6666 83.3333V91.6667H8.33325ZM47.0833 37.9167C42.0833 21.6667 16.6666 25.4167 16.6666 25.4167C16.6666 25.4167 17.4999 57.9167 41.2499 52.9167C39.5833 40.8333 33.3333 37.5 33.3333 37.5C44.9999 37.5 45.8333 51.6667 45.8333 51.6667V70.8333H54.1666V53.3333C54.1666 53.3333 54.1666 37.0833 66.6666 32.9167C66.6666 32.9167 58.3333 45.4167 58.3333 53.75C87.4999 56.6667 87.4999 16.6667 87.4999 16.6667C87.4999 16.6667 50.4166 12.5 47.0833 37.9167Z" fill="black"/>
</svg>
