<?xml version="1.0" standalone="no"?><svg xmlns:xlink="http://www.w3.org/1999/xlink" xmlns="http://www.w3.org/2000/svg" viewBox="0 0 1000 333.3262316910786" preserveAspectRatio="xMaxYMax slice"><g transform="scale(0.6657789613848203)"><rect x="0" y="0" width="1502" height="500.6666666666667" fill="#FFFFFF"/><rect x="0" y="0" width="125.17" height="125.17" fill="#663333"/><path d="M 0 125.17 A 125.17 125.17 0 0 0 125.17 0 L 0 0L0 125.17" fill="#574524"/><rect x="125.17" y="0" width="125.17" height="125.17" fill="#EEEEEE"/><polygon points="250.34,0 250.34,125.17 125.17,125.17" fill="#AAAAAA"/><rect x="250.33" y="0" width="125.17" height="125.17" fill="#574524"/><path d="M 250.33 0 A 125.17 125.17 0 0 1  375.5 125.17 L 250.33 0 A 125.17 125.17 0 0 0 375.5 125.17" fill="#574524"/><rect x="375.5" y="0" width="125.17" height="125.17" fill="#AAAAAA"/><path d="M 375.5 125.17 A 125.17 125.17 0 0 1  500.67 0 L 375.5 125.17 A 125.17 125.17 0 0 0 500.67 0" fill="#EEEEEE"/><rect x="500.67" y="0" width="125.17" height="125.17" fill="#574524"/><rect x="500.67" y="0" width="125.17" height="125.17" fill="#663333"/><rect x="625.83" y="0" width="125.17" height="125.17" fill="#574524"/><path d="M 625.83 0 A 125.17 125.17 0 0 0 751 125.17 L 751 0L625.83 0" fill="#574524"/><rect x="751" y="0" width="125.17" height="125.17" fill="#663333"/><path d="M 751 0 A 125.17 125.17 0 0 1 876.17 125.17 L 751 125.17L751 0" fill="#EEEEEE"/><rect x="876.17" y="0" width="125.17" height="125.17" fill="#574524"/><rect x="876.17" y="0" width="125.17" height="125.17" fill="#AAAAAA"/><rect x="1001.33" y="0" width="125.17" height="125.17" fill="#AAAAAA"/><polygon points="1001.33,0 1126.5,0 1126.5,125.17" fill="#EEEEEE"/><rect x="1126.5" y="0" width="125.17" height="125.17" fill="#574524"/><path d="M 1126.5 125.17 A 125.17 125.17 0 0 1  1251.67 0 L 1126.5 125.17 A 125.17 125.17 0 0 0 1251.67 0" fill="#663333"/><rect x="1251.6666666666667" y="0" width="125.16666666666667" height="125.16666666666667" fill="#FFFFFF"/><rect x="1251.67" y="0" width="62.58" height="62.58" fill="#574524"/><path d="M 1251.67 62.58 A 62.58 62.58 0 0 0 1314.25 0 L 1251.67 0L1251.67 62.58" fill="#AAAAAA"/><rect x="1314.25" y="0" width="62.58" height="62.58" fill="#EEEEEE"/><path d="M 1314.25 0 A 62.58 62.58 0 0 0 1376.83 62.58 L 1376.83 0L1314.25 0" fill="#AAAAAA"/><rect x="1251.67" y="62.58" width="62.58" height="62.58" fill="#AAAAAA"/><path d="M 1251.67 62.58 A 62.58 62.58 0 0 1 1314.25 125.16 L 1251.67 125.16L1251.67 62.58" fill="#AAAAAA"/><rect x="1314.25" y="62.58" width="62.58" height="62.58" fill="#574524"/><path d="M 1314.25 125.16 A 62.58 62.58 0 0 1  1376.83 62.58 L 1376.83 125.16L1314.25 125.16" fill="#663333"/><rect x="1376.83" y="0" width="125.17" height="125.17" fill="#AAAAAA"/><rect x="1376.83" y="0" width="125.17" height="125.17" fill="#EEEEEE"/><rect x="0" y="125.16666666666667" width="125.16666666666667" height="125.16666666666667" fill="#FFFFFF"/><rect x="0" y="125.17" width="62.58" height="62.58" fill="#EEEEEE"/><path d="M 0 125.17 A 62.58 62.58 0 0 1 62.58 187.75 L 0 187.75L0 125.17" fill="#663333"/><rect x="62.58" y="125.17" width="62.58" height="62.58" fill="#574524"/><path d="M 62.58 187.75 A 62.58 62.58 0 0 1  125.16 125.17 L 125.16 187.75L62.58 187.75" fill="#EEEEEE"/><rect x="0" y="187.75" width="62.58" height="62.58" fill="#AAAAAA"/><path d="M 0 250.32999999999998 A 62.58 62.58 0 0 0 62.58 187.75 L 0 187.75L0 250.32999999999998" fill="#574524"/><rect x="62.58" y="187.75" width="62.58" height="62.58" fill="#663333"/><path d="M 62.58 187.75 A 62.58 62.58 0 0 0 125.16 250.32999999999998 L 125.16 187.75L62.58 187.75" fill="#AAAAAA"/><rect x="125.17" y="125.17" width="125.17" height="125.17" fill="#AAAAAA"/><polygon points="125.17,125.17 250.34,125.17 125.17,250.34" fill="#663333"/><rect x="250.33" y="125.17" width="125.17" height="125.17" fill="#EEEEEE"/><polygon points="375.5,125.17 375.5,250.34 250.33,250.34" fill="#EEEEEE"/><rect x="375.5" y="125.17" width="125.17" height="125.17" fill="#EEEEEE"/><path d="M 375.5 125.17 A 125.17 125.17 0 0 0 500.67 250.34 L 500.67 125.17L375.5 125.17" fill="#AAAAAA"/><rect x="500.67" y="125.17" width="125.17" height="125.17" fill="#574524"/><path d="M 500.67 250.34 A 125.17 125.17 0 0 0 625.84 125.17 L 500.67 125.17L500.67 250.34" fill="#663333"/><rect x="625.83" y="125.17" width="125.17" height="125.17" fill="#663333"/><rect x="625.83" y="125.17" width="125.17" height="125.17" fill="#EEEEEE"/><rect x="751" y="125.17" width="125.17" height="125.17" fill="#574524"/><rect x="751" y="125.17" width="125.17" height="125.17" fill="#574524"/><rect x="876.17" y="125.17" width="125.17" height="125.17" fill="#574524"/><path d="M 876.17 250.34 A 125.17 125.17 0 0 1  1001.3399999999999 125.17 L 1001.3399999999999 250.34L876.17 250.34" fill="#AAAAAA"/><rect x="1001.33" y="125.17" width="125.17" height="125.17" fill="#574524"/><polygon points="1001.33,125.17 1126.5,125.17 1001.33,250.34" fill="#663333"/><rect x="1126.5" y="125.17" width="125.17" height="125.17" fill="#663333"/><polygon points="1251.67,125.17 1251.67,250.34 1126.5,250.34" fill="#574524"/><rect x="1251.67" y="125.17" width="125.17" height="125.17" fill="#663333"/><polygon points="1376.8400000000001,125.17 1376.8400000000001,250.34 1251.67,250.34" fill="#663333"/><rect x="1376.8333333333335" y="125.16666666666667" width="125.16666666666667" height="125.16666666666667" fill="#FFFFFF"/><rect x="1376.83" y="125.17" width="62.58" height="62.58" fill="#663333"/><path d="M 1376.83 187.75 A 62.58 62.58 0 0 0 1439.4099999999999 125.17 L 1376.83 125.17L1376.83 187.75" fill="#574524"/><rect x="1439.42" y="125.17" width="62.58" height="62.58" fill="#574524"/><path d="M 1439.42 125.17 A 62.58 62.58 0 0 0 1502 187.75 L 1502 125.17L1439.42 125.17" fill="#AAAAAA"/><rect x="1376.83" y="187.75" width="62.58" height="62.58" fill="#AAAAAA"/><path d="M 1376.83 187.75 A 62.58 62.58 0 0 1 1439.4099999999999 250.32999999999998 L 1376.83 250.32999999999998L1376.83 187.75" fill="#574524"/><rect x="1439.42" y="187.75" width="62.58" height="62.58" fill="#574524"/><path d="M 1439.42 250.32999999999998 A 62.58 62.58 0 0 1  1502 187.75 L 1502 250.32999999999998L1439.42 250.32999999999998" fill="#EEEEEE"/><rect x="0" y="250.33" width="125.17" height="125.17" fill="#AAAAAA"/><path d="M 0 375.5 A 125.17 125.17 0 0 1  125.17 250.33 L 125.17 375.5L0 375.5" fill="#663333"/><rect x="125.17" y="250.33" width="125.17" height="125.17" fill="#663333"/><path d="M 125.17 375.5 A 125.17 125.17 0 0 1  250.34 250.33 L 250.34 375.5L125.17 375.5" fill="#663333"/><rect x="250.33" y="250.33" width="125.17" height="125.17" fill="#EEEEEE"/><polygon points="250.33,250.33 375.5,250.33 250.33,375.5" fill="#574524"/><rect x="375.5" y="250.33333333333334" width="125.16666666666667" height="125.16666666666667" fill="#FFFFFF"/><rect x="375.5" y="250.33" width="62.58" height="62.58" fill="#EEEEEE"/><polygon points="438.08,250.33 438.08,312.91 375.5,312.91" fill="#EEEEEE"/><rect x="438.08" y="250.33" width="62.58" height="62.58" fill="#574524"/><polygon points="438.08,250.33 500.65999999999997,312.91 438.08,312.91" fill="#663333"/><rect x="375.5" y="312.92" width="62.58" height="62.58" fill="#574524"/><polygon points="375.5,312.92 438.08,312.92 375.5,375.5" fill="#AAAAAA"/><rect x="438.08" y="312.92" width="62.58" height="62.58" fill="#EEEEEE"/><polygon points="438.08,312.92 500.65999999999997,312.92 500.65999999999997,375.5" fill="#663333"/><rect x="500.67" y="250.33" width="125.17" height="125.17" fill="#EEEEEE"/><polygon points="500.67,250.33 625.84,375.5 500.67,375.5" fill="#574524"/><rect x="625.83" y="250.33" width="125.17" height="125.17" fill="#AAAAAA"/><rect x="625.83" y="250.33" width="125.17" height="125.17" fill="#AAAAAA"/><rect x="751" y="250.33" width="125.17" height="125.17" fill="#EEEEEE"/><path d="M 751 250.33 A 125.17 125.17 0 0 1 876.17 375.5 L 751 375.5L751 250.33" fill="#663333"/><rect x="876.17" y="250.33" width="125.17" height="125.17" fill="#EEEEEE"/><rect x="876.17" y="250.33" width="125.17" height="125.17" fill="#663333"/><rect x="1001.33" y="250.33" width="125.17" height="125.17" fill="#AAAAAA"/><rect x="1001.33" y="250.33" width="125.17" height="125.17" fill="#EEEEEE"/><rect x="1126.5" y="250.33" width="125.17" height="125.17" fill="#663333"/><path d="M 1126.5 375.5 A 125.17 125.17 0 0 1  1251.67 250.33 L 1126.5 375.5 A 125.17 125.17 0 0 0 1251.67 250.33" fill="#AAAAAA"/><rect x="1251.67" y="250.33" width="125.17" height="125.17" fill="#EEEEEE"/><polygon points="1376.8400000000001,250.33 1376.8400000000001,375.5 1251.67,375.5" fill="#663333"/><rect x="1376.83" y="250.33" width="125.17" height="125.17" fill="#EEEEEE"/><path d="M 1376.83 250.33 A 125.17 125.17 0 0 0 1502 375.5 L 1502 250.33L1376.83 250.33" fill="#663333"/><rect x="0" y="375.5" width="125.17" height="125.17" fill="#AAAAAA"/><path d="M 0 500.67 A 125.17 125.17 0 0 1  125.17 375.5 L 0 500.67 A 125.17 125.17 0 0 0 125.17 375.5" fill="#663333"/><rect x="125.17" y="375.5" width="125.17" height="125.17" fill="#574524"/><polygon points="125.17,375.5 250.34,375.5 250.34,500.67" fill="#663333"/><rect x="250.33" y="375.5" width="125.17" height="125.17" fill="#663333"/><polygon points="250.33,375.5 375.5,375.5 375.5,500.67" fill="#574524"/><rect x="375.5" y="375.5" width="125.17" height="125.17" fill="#663333"/><path d="M 375.5 500.67 A 125.17 125.17 0 0 0 500.67 375.5 L 375.5 375.5L375.5 500.67" fill="#EEEEEE"/><rect x="500.6666666666667" y="375.5" width="125.16666666666667" height="125.16666666666667" fill="#FFFFFF"/><rect x="500.67" y="375.5" width="62.58" height="62.58" fill="#663333"/><polygon points="563.25,375.5 563.25,438.08 500.67,438.08" fill="#574524"/><rect x="563.25" y="375.5" width="62.58" height="62.58" fill="#663333"/><polygon points="563.25,375.5 625.83,375.5 563.25,438.08" fill="#663333"/><rect x="500.67" y="438.08" width="62.58" height="62.58" fill="#AAAAAA"/><polygon points="500.67,438.08 563.25,438.08 563.25,500.65999999999997" fill="#EEEEEE"/><rect x="563.25" y="438.08" width="62.58" height="62.58" fill="#574524"/><polygon points="563.25,438.08 625.83,500.65999999999997 563.25,500.65999999999997" fill="#AAAAAA"/><rect x="625.83" y="375.5" width="125.17" height="125.17" fill="#EEEEEE"/><polygon points="625.83,375.5 751,375.5 751,500.67" fill="#AAAAAA"/><rect x="751" y="375.5" width="125.17" height="125.17" fill="#663333"/><rect x="751" y="375.5" width="125.17" height="125.17" fill="#574524"/><rect x="876.17" y="375.5" width="125.17" height="125.17" fill="#EEEEEE"/><polygon points="876.17,375.5 1001.3399999999999,500.67 876.17,500.67" fill="#574524"/><rect x="1001.3333333333334" y="375.5" width="125.16666666666667" height="125.16666666666667" fill="#FFFFFF"/><rect x="1001.33" y="375.5" width="62.58" height="62.58" fill="#574524"/><polygon points="1063.91,375.5 1063.91,438.08 1001.33,438.08" fill="#AAAAAA"/><rect x="1063.92" y="375.5" width="62.58" height="62.58" fill="#EEEEEE"/><polygon points="1063.92,375.5 1126.5,438.08 1063.92,438.08" fill="#663333"/><rect x="1001.33" y="438.08" width="62.58" height="62.58" fill="#EEEEEE"/><polygon points="1001.33,438.08 1063.91,438.08 1001.33,500.65999999999997" fill="#EEEEEE"/><rect x="1063.92" y="438.08" width="62.58" height="62.58" fill="#AAAAAA"/><polygon points="1063.92,438.08 1126.5,438.08 1126.5,500.65999999999997" fill="#EEEEEE"/><rect x="1126.5" y="375.5" width="125.17" height="125.17" fill="#AAAAAA"/><path d="M 1126.5 500.67 A 125.17 125.17 0 0 1  1251.67 375.5 L 1251.67 500.67L1126.5 500.67" fill="#663333"/><rect x="1251.67" y="375.5" width="125.17" height="125.17" fill="#574524"/><polygon points="1251.67,375.5 1376.8400000000001,375.5 1251.67,500.67" fill="#AAAAAA"/><rect x="1376.83" y="375.5" width="125.17" height="125.17" fill="#EEEEEE"/><polygon points="1502,375.5 1502,500.67 1376.83,500.67" fill="#EEEEEE"/></g></svg>