<?xml version="1.0" standalone="no"?><svg xmlns:xlink="http://www.w3.org/1999/xlink" xmlns="http://www.w3.org/2000/svg" viewBox="0 0 1000 333.3262316910786" preserveAspectRatio="xMaxYMax slice"><g transform="scale(0.6657789613848203)"><rect x="0" y="0" width="1502" height="500.6666666666667" fill="#000000"/><rect x="0" y="0" width="125.17" height="125.17" fill="#0c0c0c"/><path d="M 0 0 A 125.17 125.17 0 0 1  125.17 125.17 L 0 0 A 125.17 125.17 0 0 0 125.17 125.17" fill="#ae8b00"/><rect x="125.17" y="0" width="125.17" height="125.17" fill="#060606"/><polygon points="250.34,0 250.34,125.17 125.17,125.17" fill="#2e2e2e"/><rect x="250.33" y="0" width="125.17" height="125.17" fill="#4d3e00"/><rect x="250.33" y="0" width="125.17" height="125.17" fill="#f4c300"/><rect x="375.5" y="0" width="125.16666666666667" height="125.16666666666667" fill="#000000"/><rect x="375.5" y="0" width="62.58" height="62.58" fill="#ad8a00"/><polygon points="438.08,0 438.08,62.58 375.5,62.58" fill="#262626"/><rect x="438.08" y="0" width="62.58" height="62.58" fill="#252525"/><polygon points="438.08,0 500.65999999999997,62.58 438.08,62.58" fill="#e4b700"/><rect x="375.5" y="62.58" width="62.58" height="62.58" fill="#050505"/><polygon points="375.5,62.58 438.08,62.58 375.5,125.16" fill="#030303"/><rect x="438.08" y="62.58" width="62.58" height="62.58" fill="#515151"/><polygon points="438.08,62.58 500.65999999999997,62.58 500.65999999999997,125.16" fill="#080808"/><rect x="500.67" y="0" width="125.17" height="125.17" fill="#161616"/><polygon points="625.84,0 625.84,125.17 500.67,125.17" fill="#564926"/><rect x="625.83" y="0" width="125.17" height="125.17" fill="#9e7e00"/><polygon points="625.83,0 751,125.17 625.83,125.17" fill="#0b0b0b"/><rect x="751" y="0" width="125.17" height="125.17" fill="#ffd770"/><rect x="751" y="0" width="125.17" height="125.17" fill="#202020"/><rect x="876.17" y="0" width="125.17" height="125.17" fill="#010100"/><path d="M 876.17 0 A 125.17 125.17 0 0 0 1001.3399999999999 125.17 L 1001.3399999999999 0L876.17 0" fill="#494949"/><rect x="1001.33" y="0" width="125.17" height="125.17" fill="#3c331a"/><path d="M 1001.33 125.17 A 125.17 125.17 0 0 0 1126.5 0 L 1001.33 0L1001.33 125.17" fill="#484848"/><rect x="1126.5" y="0" width="125.17" height="125.17" fill="#333333"/><rect x="1126.5" y="0" width="125.17" height="125.17" fill="#181818"/><rect x="1251.67" y="0" width="125.17" height="125.17" fill="#161616"/><rect x="1251.67" y="0" width="125.17" height="125.17" fill="#1d1d1d"/><rect x="1376.83" y="0" width="125.17" height="125.17" fill="#90793f"/><rect x="1376.83" y="0" width="125.17" height="125.17" fill="#1c1700"/><rect x="0" y="125.17" width="125.17" height="125.17" fill="#474747"/><path d="M 0 250.34 A 125.17 125.17 0 0 1  125.17 125.17 L 125.17 250.34L0 250.34" fill="#edc768"/><rect x="125.17" y="125.17" width="125.17" height="125.17" fill="#7a6735"/><path d="M 125.17 125.17 A 125.17 125.17 0 0 1  250.34 250.34 L 125.17 125.17 A 125.17 125.17 0 0 0 250.34 250.34" fill="#6b5a2f"/><rect x="250.33333333333334" y="125.16666666666667" width="125.16666666666667" height="125.16666666666667" fill="#000000"/><rect x="250.33" y="125.17" width="62.58" height="62.58" fill="#333333"/><polygon points="312.91,125.17 312.91,187.75 250.33,187.75" fill="#312915"/><rect x="312.92" y="125.17" width="62.58" height="62.58" fill="#c7a858"/><polygon points="312.92,125.17 375.5,125.17 312.92,187.75" fill="#1d1d1d"/><rect x="250.33" y="187.75" width="62.58" height="62.58" fill="#8e7100"/><polygon points="250.33,187.75 312.91,187.75 312.91,250.32999999999998" fill="#d1a700"/><rect x="312.92" y="187.75" width="62.58" height="62.58" fill="#fac800"/><polygon points="312.92,187.75 375.5,250.32999999999998 312.92,250.32999999999998" fill="#8f783f"/><rect x="375.5" y="125.17" width="125.17" height="125.17" fill="#282000"/><polygon points="375.5,125.17 500.67,125.17 375.5,250.34" fill="#382f19"/><rect x="500.67" y="125.17" width="125.17" height="125.17" fill="#121212"/><rect x="500.67" y="125.17" width="125.17" height="125.17" fill="#977900"/><rect x="625.83" y="125.17" width="125.17" height="125.17" fill="#4b4b4b"/><path d="M 625.83 125.17 A 125.17 125.17 0 0 0 751 250.34 L 751 125.17L625.83 125.17" fill="#292929"/><rect x="751" y="125.17" width="125.17" height="125.17" fill="#0b0b0b"/><polygon points="751,125.17 876.17,125.17 751,250.34" fill="#333333"/><rect x="876.17" y="125.17" width="125.17" height="125.17" fill="#0f0f0f"/><path d="M 876.17 250.34 A 125.17 125.17 0 0 0 1001.3399999999999 125.17 L 876.17 125.17L876.17 250.34" fill="#2e2e2e"/><rect x="1001.3333333333334" y="125.16666666666667" width="125.16666666666667" height="125.16666666666667" fill="#000000"/><rect x="1001.33" y="125.17" width="62.58" height="62.58" fill="#292929"/><path d="M 1001.33 187.75 A 62.58 62.58 0 0 1 1063.91 125.17 L 1063.91 140.815 A 46.935 46.935 0 0 0 1016.975 187.75" fill="#c69e00"/><rect x="1063.92" y="125.17" width="62.58" height="62.58" fill="#b2964e"/><path d="M 1063.92 125.17 A 62.58 62.58 0 0 1 1126.5 187.75 L 1110.855 187.75 A 46.935 46.935 0 0 0 1063.92 140.815" fill="#060606"/><rect x="1001.33" y="187.75" width="62.58" height="62.58" fill="#1a1a1a"/><path d="M 1001.33 187.75 A 62.58 62.58 0 0 0 1063.91 250.32999999999998 L 1063.91 234.685 A 46.935 46.935 0 0 1 1016.975 187.75" fill="#fac800"/><rect x="1063.92" y="187.75" width="62.58" height="62.58" fill="#0a0800"/><path d="M 1063.92 250.32999999999998 A 62.58 62.58 0 0 0 1126.5 187.75 L 1110.855 187.75 A 46.935 46.935 0 0 1 1063.92 234.685" fill="#111111"/><rect x="1126.5" y="125.16666666666667" width="125.16666666666667" height="125.16666666666667" fill="#000000"/><rect x="1126.5" y="125.17" width="62.58" height="62.58" fill="#88733c"/><path d="M 1126.5 125.17 A 62.58 62.58 0 0 1 1189.08 187.75 L 1126.5 187.75L1126.5 125.17" fill="#454545"/><rect x="1189.08" y="125.17" width="62.58" height="62.58" fill="#131313"/><path d="M 1189.08 187.75 A 62.58 62.58 0 0 1  1251.6599999999999 125.17 L 1251.6599999999999 187.75L1189.08 187.75" fill="#e5b700"/><rect x="1126.5" y="187.75" width="62.58" height="62.58" fill="#191919"/><path d="M 1126.5 250.32999999999998 A 62.58 62.58 0 0 0 1189.08 187.75 L 1126.5 187.75L1126.5 250.32999999999998" fill="#b89300"/><rect x="1189.08" y="187.75" width="62.58" height="62.58" fill="#040404"/><path d="M 1189.08 187.75 A 62.58 62.58 0 0 0 1251.6599999999999 250.32999999999998 L 1251.6599999999999 187.75L1189.08 187.75" fill="#000000"/><rect x="1251.67" y="125.17" width="125.17" height="125.17" fill="#1f1f1f"/><polygon points="1376.8400000000001,125.17 1376.8400000000001,250.34 1251.67,250.34" fill="#6b5a2f"/><rect x="1376.83" y="125.17" width="125.17" height="125.17" fill="#1f1f1f"/><path d="M 1376.83 250.34 A 125.17 125.17 0 0 1  1502 125.17 L 1376.83 250.34 A 125.17 125.17 0 0 0 1502 125.17" fill="#a38947"/><rect x="0" y="250.33" width="125.17" height="125.17" fill="#e6b800"/><path d="M 0 250.33 A 125.17 125.17 0 0 0 125.17 375.5 L 125.17 250.33L0 250.33" fill="#9d8545"/><rect x="125.17" y="250.33" width="125.17" height="125.17" fill="#3c3c3c"/><rect x="125.17" y="250.33" width="125.17" height="125.17" fill="#2b2b2b"/><rect x="250.33" y="250.33" width="125.17" height="125.17" fill="#caaa59"/><rect x="250.33" y="250.33" width="125.17" height="125.17" fill="#2e2e2e"/><rect x="375.5" y="250.33" width="125.17" height="125.17" fill="#eec969"/><polygon points="375.5,250.33 500.67,250.33 375.5,375.5" fill="#3b3b3b"/><rect x="500.67" y="250.33" width="125.17" height="125.17" fill="#363636"/><rect x="500.67" y="250.33" width="125.17" height="125.17" fill="#4f4000"/><rect x="625.83" y="250.33" width="125.17" height="125.17" fill="#362b00"/><polygon points="751,250.33 751,375.5 625.83,375.5" fill="#171717"/><rect x="751" y="250.33" width="125.17" height="125.17" fill="#927b40"/><rect x="751" y="250.33" width="125.17" height="125.17" fill="#000000"/><rect x="876.17" y="250.33" width="125.17" height="125.17" fill="#373737"/><polygon points="876.17,250.33 1001.3399999999999,250.33 1001.3399999999999,375.5" fill="#282000"/><rect x="1001.33" y="250.33" width="125.17" height="125.17" fill="#af944d"/><polygon points="1001.33,250.33 1126.5,250.33 1001.33,375.5" fill="#bd9800"/><rect x="1126.5" y="250.33" width="125.17" height="125.17" fill="#2b2b2b"/><path d="M 1126.5 250.33 A 125.17 125.17 0 0 0 1251.67 375.5 L 1251.67 250.33L1126.5 250.33" fill="#0c0c0c"/><rect x="1251.6666666666667" y="250.33333333333334" width="125.16666666666667" height="125.16666666666667" fill="#000000"/><rect x="1251.67" y="250.33" width="62.58" height="62.58" fill="#bda053"/><path d="M 1251.67 312.91 A 62.58 62.58 0 0 0 1314.25 250.33 L 1251.67 250.33L1251.67 312.91" fill="#303030"/><rect x="1314.25" y="250.33" width="62.58" height="62.58" fill="#f0ca69"/><path d="M 1314.25 250.33 A 62.58 62.58 0 0 0 1376.83 312.91 L 1376.83 250.33L1314.25 250.33" fill="#0d0d0d"/><rect x="1251.67" y="312.92" width="62.58" height="62.58" fill="#fcc900"/><path d="M 1251.67 312.92 A 62.58 62.58 0 0 1 1314.25 375.5 L 1251.67 375.5L1251.67 312.92" fill="#af934d"/><rect x="1314.25" y="312.92" width="62.58" height="62.58" fill="#303030"/><path d="M 1314.25 375.5 A 62.58 62.58 0 0 1  1376.83 312.92 L 1376.83 375.5L1314.25 375.5" fill="#a18100"/><rect x="1376.83" y="250.33" width="125.17" height="125.17" fill="#0b0b0b"/><rect x="1376.83" y="250.33" width="125.17" height="125.17" fill="#1a1a1a"/><rect x="0" y="375.5" width="125.17" height="125.17" fill="#0e0e0e"/><path d="M 0 375.5 A 125.17 125.17 0 0 1  125.17 500.67 L 0 375.5 A 125.17 125.17 0 0 0 125.17 500.67" fill="#43391e"/><rect x="125.17" y="375.5" width="125.17" height="125.17" fill="#262626"/><path d="M 125.17 500.67 A 125.17 125.17 0 0 1  250.34 375.5 L 125.17 500.67 A 125.17 125.17 0 0 0 250.34 375.5" fill="#2f2f2f"/><rect x="250.33333333333334" y="375.5" width="125.16666666666667" height="125.16666666666667" fill="#000000"/><rect x="250.33" y="375.5" width="62.58" height="62.58" fill="#494949"/><path d="M 250.33 438.08 A 62.58 62.58 0 0 0 312.91 375.5 L 250.33 375.5L250.33 438.08" fill="#caa200"/><rect x="312.92" y="375.5" width="62.58" height="62.58" fill="#85703a"/><path d="M 312.92 375.5 A 62.58 62.58 0 0 0 375.5 438.08 L 375.5 375.5L312.92 375.5" fill="#514100"/><rect x="250.33" y="438.08" width="62.58" height="62.58" fill="#111111"/><path d="M 250.33 438.08 A 62.58 62.58 0 0 1 312.91 500.65999999999997 L 250.33 500.65999999999997L250.33 438.08" fill="#65552c"/><rect x="312.92" y="438.08" width="62.58" height="62.58" fill="#3d331b"/><path d="M 312.92 500.65999999999997 A 62.58 62.58 0 0 1  375.5 438.08 L 375.5 500.65999999999997L312.92 500.65999999999997" fill="#ba9500"/><rect x="375.5" y="375.5" width="125.17" height="125.17" fill="#463800"/><rect x="375.5" y="375.5" width="125.17" height="125.17" fill="#65562d"/><rect x="500.67" y="375.5" width="125.17" height="125.17" fill="#232323"/><rect x="500.67" y="375.5" width="125.17" height="125.17" fill="#040300"/><rect x="625.8333333333334" y="375.5" width="125.16666666666667" height="125.16666666666667" fill="#000000"/><rect x="625.83" y="375.5" width="62.58" height="62.58" fill="#262626"/><path d="M 625.83 438.08 A 62.58 62.58 0 0 1  688.4100000000001 375.5 L 688.4100000000001 438.08L625.83 438.08" fill="#e2b500"/><rect x="688.42" y="375.5" width="62.58" height="62.58" fill="#7e6a37"/><path d="M 688.42 375.5 A 62.58 62.58 0 0 1 751 438.08 L 688.42 438.08L688.42 375.5" fill="#4b3f21"/><rect x="625.83" y="438.08" width="62.58" height="62.58" fill="#60512a"/><path d="M 625.83 438.08 A 62.58 62.58 0 0 0 688.4100000000001 500.65999999999997 L 688.4100000000001 438.08L625.83 438.08" fill="#0e0c00"/><rect x="688.42" y="438.08" width="62.58" height="62.58" fill="#a88e4a"/><path d="M 688.42 500.65999999999997 A 62.58 62.58 0 0 0 751 438.08 L 688.42 438.08L688.42 500.65999999999997" fill="#2d2614"/><rect x="751" y="375.5" width="125.17" height="125.17" fill="#ccac5a"/><rect x="751" y="375.5" width="125.17" height="125.17" fill="#9e8646"/><rect x="876.17" y="375.5" width="125.17" height="125.17" fill="#222222"/><rect x="876.17" y="375.5" width="125.17" height="125.17" fill="#141414"/><rect x="1001.3333333333334" y="375.5" width="125.16666666666667" height="125.16666666666667" fill="#000000"/><rect x="1001.33" y="375.5" width="62.58" height="62.58" fill="#61522b"/><circle cx="1032.6200000000001" cy="406.79" r="31.29" fill="#2f2f2f"/><rect x="1063.92" y="375.5" width="62.58" height="62.58" fill="#171717"/><rect x="1063.92" y="375.5" width="62.58" height="62.58" fill="#5f4c00"/><rect x="1001.33" y="438.08" width="62.58" height="62.58" fill="#353535"/><circle cx="1032.6200000000001" cy="469.37" r="31.29" fill="#323232"/><rect x="1063.92" y="438.08" width="62.58" height="62.58" fill="#202020"/><rect x="1063.92" y="438.08" width="62.58" height="62.58" fill="#726032"/><rect x="1126.5" y="375.5" width="125.17" height="125.17" fill="#9d8545"/><path d="M 1126.5 375.5 A 125.17 125.17 0 0 1  1251.67 500.67 L 1126.5 375.5 A 125.17 125.17 0 0 0 1251.67 500.67" fill="#a58400"/><rect x="1251.67" y="375.5" width="125.17" height="125.17" fill="#6e5d30"/><rect x="1251.67" y="375.5" width="125.17" height="125.17" fill="#282111"/><rect x="1376.8333333333335" y="375.5" width="125.16666666666667" height="125.16666666666667" fill="#000000"/><rect x="1376.83" y="375.5" width="62.58" height="62.58" fill="#0e0e0e"/><path d="M 1376.83 375.5 A 62.58 62.58 0 0 0 1439.4099999999999 438.08 L 1439.4099999999999 375.5L1376.83 375.5" fill="#cfa500"/><rect x="1439.42" y="375.5" width="62.58" height="62.58" fill="#483a00"/><path d="M 1439.42 438.08 A 62.58 62.58 0 0 0 1502 375.5 L 1439.42 375.5L1439.42 438.08" fill="#1d1d1d"/><rect x="1376.83" y="438.08" width="62.58" height="62.58" fill="#4d4d4d"/><path d="M 1376.83 500.65999999999997 A 62.58 62.58 0 0 1  1439.4099999999999 438.08 L 1439.4099999999999 500.65999999999997L1376.83 500.65999999999997" fill="#1e1e1e"/><rect x="1439.42" y="438.08" width="62.58" height="62.58" fill="#524200"/><path d="M 1439.42 438.08 A 62.58 62.58 0 0 1 1502 500.65999999999997 L 1439.42 500.65999999999997L1439.42 438.08" fill="#755d00"/></g></svg>